<?xml version="1.0" encoding="utf-8"?>
<!-- Generator: Adobe Illustrator 27.3.1, SVG Export Plug-In . SVG Version: 6.00 Build 0)  -->
<svg version="1.1" id="Layer_1" xmlns="http://www.w3.org/2000/svg" xmlns:xlink="http://www.w3.org/1999/xlink" x="0px" y="0px"
	 viewBox="0 0 110 110" style="enable-background:new 0 0 110 110;" xml:space="preserve">
<style type="text/css">
	.st0{fill-rule:evenodd;clip-rule:evenodd;}
	.st1{fill:url(#SVGID_1_);}
	.st2{fill:url(#SVGID_00000108274443977659695200000012274435605930746558_);}
	.st3{fill:url(#SVGID_00000163064146762735414770000004236916665562313116_);}
	.st4{fill:url(#SVGID_00000008842203359756490620000004794746176239698340_);}
	.st5{fill:url(#SVGID_00000035509140445411558320000005749627225559340209_);}
</style>
<rect class="st0" width="109.93" height="110.36"/>
<g>
	<linearGradient id="SVGID_1_" gradientUnits="userSpaceOnUse" x1="23.5" y1="58.3" x2="42.78" y2="58.3">
		<stop  offset="0" style="stop-color:#F3903F"/>
		<stop  offset="0.2514" style="stop-color:#FFF33B"/>
		<stop  offset="0.2521" style="stop-color:#FFF13B"/>
		<stop  offset="0.2881" style="stop-color:#FECC40"/>
		<stop  offset="0.3247" style="stop-color:#F8AD41"/>
		<stop  offset="0.3619" style="stop-color:#F39440"/>
		<stop  offset="0.3996" style="stop-color:#F0823E"/>
		<stop  offset="0.4378" style="stop-color:#EF743D"/>
		<stop  offset="0.4771" style="stop-color:#ED6B3D"/>
		<stop  offset="0.5189" style="stop-color:#ED683C"/>
		<stop  offset="0.7725" style="stop-color:#FDC70C"/>
		<stop  offset="1" style="stop-color:#E93E3A"/>
	</linearGradient>
	<path class="st1" d="M33.14,66.94c-4.77,0-8.64-3.87-8.64-8.64c0-4.77,3.87-8.64,8.64-8.64v-1c-5.32,0-9.64,4.32-9.64,9.64
		s4.32,9.64,9.64,9.64c3.03,0,5.74-1.41,7.51-3.6c0.25-0.31,0.49-0.64,0.7-0.98c0.33-0.54,0.61-1.12,0.84-1.73
		c0.38-1.04,0.59-2.16,0.59-3.33h-0.99h-0.01c0,1.32-0.3,2.57-0.83,3.69c-0.2,0.43-0.44,0.83-0.71,1.22
		C38.69,65.46,36.09,66.94,33.14,66.94z"/>
	
		<linearGradient id="SVGID_00000025420333714793428060000013033887508989328008_" gradientUnits="userSpaceOnUse" x1="21.21" y1="58.3" x2="45.07" y2="58.3">
		<stop  offset="0" style="stop-color:#F3903F"/>
		<stop  offset="0.2514" style="stop-color:#FFF33B"/>
		<stop  offset="0.2521" style="stop-color:#FFF13B"/>
		<stop  offset="0.2881" style="stop-color:#FECC40"/>
		<stop  offset="0.3247" style="stop-color:#F8AD41"/>
		<stop  offset="0.3619" style="stop-color:#F39440"/>
		<stop  offset="0.3996" style="stop-color:#F0823E"/>
		<stop  offset="0.4378" style="stop-color:#EF743D"/>
		<stop  offset="0.4771" style="stop-color:#ED6B3D"/>
		<stop  offset="0.5189" style="stop-color:#ED683C"/>
		<stop  offset="0.7725" style="stop-color:#FDC70C"/>
		<stop  offset="1" style="stop-color:#E93E3A"/>
	</linearGradient>
	<path style="fill:url(#SVGID_00000025420333714793428060000013033887508989328008_);" d="M41.93,64.8c-0.22,0.3-0.45,0.58-0.7,0.85
		c-2,2.2-4.89,3.58-8.09,3.58c-6.03,0-10.93-4.9-10.93-10.93c0-6.03,4.9-10.93,10.93-10.93v-1c-6.58,0-11.93,5.35-11.93,11.93
		c0,6.58,5.35,11.93,11.93,11.93c3.37,0,6.42-1.4,8.59-3.66c0.24-0.25,0.47-0.51,0.69-0.79c0.3-0.37,0.59-0.77,0.84-1.18
		c0.22-0.35,0.42-0.71,0.61-1.08c0.28-0.58,0.52-1.19,0.7-1.82c0.33-1.08,0.5-2.22,0.5-3.4h-1c0,1.36-0.25,2.66-0.71,3.86
		c-0.16,0.45-0.36,0.89-0.59,1.31C42.52,63.94,42.24,64.38,41.93,64.8z"/>
	
		<linearGradient id="SVGID_00000109016072511482556860000011990944850949252021_" gradientUnits="userSpaceOnUse" x1="18.93" y1="58.3" x2="47.35" y2="58.3">
		<stop  offset="0" style="stop-color:#F3903F"/>
		<stop  offset="0.2514" style="stop-color:#FFF33B"/>
		<stop  offset="0.2521" style="stop-color:#FFF13B"/>
		<stop  offset="0.2881" style="stop-color:#FECC40"/>
		<stop  offset="0.3247" style="stop-color:#F8AD41"/>
		<stop  offset="0.3619" style="stop-color:#F39440"/>
		<stop  offset="0.3996" style="stop-color:#F0823E"/>
		<stop  offset="0.4378" style="stop-color:#EF743D"/>
		<stop  offset="0.4771" style="stop-color:#ED6B3D"/>
		<stop  offset="0.5189" style="stop-color:#ED683C"/>
		<stop  offset="0.7725" style="stop-color:#FDC70C"/>
		<stop  offset="1" style="stop-color:#E93E3A"/>
	</linearGradient>
	<path style="fill:url(#SVGID_00000109016072511482556860000011990944850949252021_);" d="M43.97,65.85
		c-0.25,0.38-0.53,0.74-0.84,1.08c-0.22,0.26-0.45,0.51-0.69,0.75c-2.39,2.37-5.68,3.83-9.3,3.83c-7.29,0-13.21-5.92-13.21-13.21
		c0-7.29,5.92-13.21,13.21-13.21v-1c-7.84,0-14.21,6.37-14.21,14.21c0,7.84,6.37,14.21,14.21,14.21c3.84,0,7.33-1.53,9.89-4.03
		c0.25-0.22,0.48-0.47,0.7-0.72c0.3-0.33,0.58-0.68,0.84-1.03c0.21-0.29,0.41-0.58,0.6-0.88c0.26-0.4,0.49-0.82,0.71-1.25
		c0.18-0.37,0.35-0.75,0.49-1.13c0.24-0.59,0.43-1.21,0.58-1.84c0.26-1.07,0.4-2.18,0.4-3.33h-0.99h-0.01c0,1.34-0.2,2.64-0.57,3.86
		c-0.15,0.47-0.31,0.92-0.51,1.36c-0.2,0.48-0.44,0.95-0.7,1.4C44.39,65.24,44.19,65.55,43.97,65.85z"/>
	
		<linearGradient id="SVGID_00000111171606782958363050000011974788215109518502_" gradientUnits="userSpaceOnUse" x1="16.64" y1="55" x2="93.36" y2="55">
		<stop  offset="0" style="stop-color:#F3903F"/>
		<stop  offset="0.2514" style="stop-color:#FFF33B"/>
		<stop  offset="0.2521" style="stop-color:#FFF13B"/>
		<stop  offset="0.2881" style="stop-color:#FECC40"/>
		<stop  offset="0.3247" style="stop-color:#F8AD41"/>
		<stop  offset="0.3619" style="stop-color:#F39440"/>
		<stop  offset="0.3996" style="stop-color:#F0823E"/>
		<stop  offset="0.4378" style="stop-color:#EF743D"/>
		<stop  offset="0.4771" style="stop-color:#ED6B3D"/>
		<stop  offset="0.5189" style="stop-color:#ED683C"/>
		<stop  offset="0.7725" style="stop-color:#FDC70C"/>
		<stop  offset="1" style="stop-color:#E93E3A"/>
	</linearGradient>
	<path style="fill:url(#SVGID_00000111171606782958363050000011974788215109518502_);" d="M93.36,66.02v-1
		c-3.51,0-6.36-2.85-6.36-6.36v-6.72h5.57v-1H87h-1h-1.28h-1h-1.29h-1h-1.28h-1h-0.29h-0.09c-0.64,0.01-1.26,0.11-1.85,0.27
		l-0.06,0.01v0c-3.09,0.87-5.36,3.71-5.36,7.08v0.01c0,0.13,0,0.26-0.01,0.39c-0.02,1.13-0.17,2.23-0.44,3.29
		c-0.11,0.47-0.24,0.92-0.4,1.37c-0.13,0.37-0.27,0.75-0.43,1.11c0,0.01-0.01,0.01-0.01,0.02c-0.04,0.11-0.09,0.21-0.14,0.31
		c-0.15,0.33-0.32,0.66-0.49,0.98c-0.12,0.2-0.23,0.4-0.36,0.59c0,0.01-0.01,0.01-0.01,0.02c-0.1,0.18-0.22,0.37-0.34,0.54
		c-0.19,0.29-0.39,0.56-0.6,0.83c-0.11,0.15-0.22,0.29-0.34,0.44c-0.16,0.19-0.32,0.37-0.49,0.55l-0.01,0.01
		c-0.16,0.18-0.33,0.35-0.5,0.53l-0.01,0.01c-0.06,0.06-0.12,0.12-0.19,0.18c-0.35,0.34-0.7,0.64-1.08,0.94
		c-0.32,0.26-0.65,0.5-1,0.73c0,0.01-0.01,0.01-0.01,0.01c-0.41,0.29-0.84,0.55-1.28,0.78c-0.33,0.17-0.66,0.34-1,0.49v0.01h-0.01
		c-1.94,0.87-4.09,1.36-6.35,1.36c-4.17,0-7.94-1.65-10.73-4.32c0.29-0.32,0.57-0.65,0.84-1c2.56,2.5,6.05,4.03,9.89,4.03
		c2.28,0,4.44-0.54,6.35-1.5c0.34-0.17,0.68-0.36,1-0.55c0.45-0.27,0.88-0.57,1.29-0.89c0.35-0.26,0.68-0.55,1-0.85
		c0.08-0.07,0.17-0.15,0.25-0.24c0.25-0.22,0.48-0.47,0.7-0.72c0.11-0.12,0.22-0.25,0.33-0.38c0.18-0.21,0.35-0.43,0.51-0.65
		c0.17-0.23,0.34-0.47,0.49-0.71c0.04-0.05,0.08-0.11,0.11-0.17c0.26-0.4,0.49-0.82,0.71-1.25c0.17-0.35,0.33-0.71,0.47-1.07
		c0.01-0.01,0.01-0.02,0.01-0.03c0.01-0.01,0.01-0.02,0.01-0.03c0.24-0.59,0.43-1.21,0.58-1.84c0.26-1.06,0.4-2.18,0.4-3.32V58.3
		h0.01c0-4.77,3.87-8.64,8.64-8.64v-0.01h1h1.29h1h1.28h1h1.29h1H88h1h3.57v-1H89h-1h-1.28h-1h-1.29h-1h-1.28h-1h-1.29h-1h-0.09
		v0.01c-5.28,0.05-9.55,4.35-9.55,9.64h-0.01v0.01c0,1.34-0.2,2.63-0.57,3.85c-0.15,0.47-0.31,0.92-0.51,1.36
		c-0.06,0.16-0.14,0.32-0.21,0.48c-0.15,0.32-0.32,0.62-0.49,0.92c-0.16,0.28-0.33,0.54-0.51,0.8c-0.02,0.05-0.05,0.09-0.09,0.13
		c-0.25,0.38-0.53,0.74-0.84,1.08c-0.11,0.14-0.23,0.27-0.35,0.4c-0.11,0.12-0.23,0.23-0.34,0.35c-0.21,0.21-0.43,0.41-0.66,0.61
		c-0.4,0.35-0.84,0.68-1.29,0.98c-0.32,0.22-0.65,0.42-1,0.61c-1.88,1.04-4.05,1.63-6.35,1.63c-3.62,0-6.91-1.46-9.3-3.83
		c0.26-0.36,0.49-0.73,0.71-1.11c2.17,2.26,5.22,3.66,8.59,3.66c2.33,0,4.51-0.67,6.35-1.84c0.35-0.22,0.68-0.45,1-0.71
		c0.44-0.34,0.85-0.71,1.24-1.11c0.01,0.03,0.03,0.06,0.05,0.09v-0.15l0.01-0.01c0.23-0.23,0.43-0.47,0.63-0.72l0.01-0.01
		c0.12-0.15,0.24-0.3,0.36-0.46c0.16-0.23,0.32-0.46,0.47-0.71c0.22-0.35,0.42-0.71,0.61-1.08c0.06-0.14,0.13-0.29,0.19-0.43
		c0.2-0.45,0.37-0.91,0.51-1.39c0.3-0.98,0.47-2.02,0.49-3.09c0.01-0.1,0.01-0.21,0.01-0.31c0-6,4.85-10.88,10.84-10.93h0.09h1h1.29
		h1h1.28h1h1.29h1H88h1h3.57v-1H89h-1h-1.28h-1h-1.29h-1h-1.28h-1h-1.29h-1h-0.09c-6.54,0.05-11.84,5.38-11.84,11.93v0.01h-0.01
		v0.55c-0.06,1.16-0.3,2.27-0.7,3.3c-0.16,0.43-0.35,0.87-0.57,1.27c0,0.01-0.01,0.01-0.01,0.02c0,0.01-0.01,0.01-0.01,0.02
		c-0.25,0.47-0.53,0.91-0.84,1.33l-0.14,0.18l-0.01,0.01c-0.17,0.23-0.36,0.45-0.55,0.66c-0.24,0.26-0.48,0.5-0.74,0.74
		c-0.32,0.29-0.65,0.56-1,0.8c-1.79,1.28-3.98,2.04-6.35,2.04c-3.2,0-6.09-1.38-8.09-3.58c0.21-0.42,0.41-0.86,0.58-1.31
		c1.77,2.19,4.48,3.6,7.51,3.6c2.43,0,4.65-0.9,6.35-2.39c0.35-0.31,0.69-0.65,1-1.01c0.06-0.06,0.11-0.13,0.16-0.2
		c0.25-0.31,0.49-0.64,0.7-0.98c0.15-0.25,0.3-0.51,0.43-0.78c0-0.01,0.01-0.01,0.01-0.02c0.15-0.3,0.28-0.61,0.4-0.93
		c0.38-1.03,0.59-2.15,0.59-3.32V58.3h0.01c0-7.29,5.92-13.21,13.21-13.21v-0.01h1h1.29h1h1.28h1h1.29h1H88h1h3.57v-1H89h-1h-1.28
		h-1h-1.29h-1h-1.28h-1h-1.29h-1h-0.09v0.01c-7.8,0.05-14.12,6.4-14.12,14.21h-0.01v0.01c0,1.32-0.3,2.56-0.83,3.68
		c-0.14,0.29-0.29,0.58-0.46,0.85c-0.08,0.12-0.16,0.25-0.25,0.37c-0.22,0.33-0.48,0.65-0.75,0.95c-1.58,1.71-3.84,2.78-6.35,2.78
		c-2.95,0-5.55-1.48-7.1-3.73c0.18-0.58,0.33-1.18,0.44-1.8c1.17,2.51,3.71,4.25,6.66,4.25c2.71,0,5.08-1.47,6.35-3.66
		c0.12-0.19,0.23-0.39,0.31-0.59c0.43-0.89,0.67-1.88,0.69-2.92c0.01-0.06,0.01-0.13,0.01-0.19c0-8.52,6.9-15.45,15.41-15.5h0.09
		h0.29h1h1.28h1h1.29h1H86h1h5.57v-1H87v-6.96h-1v6.96h-1.28v-6.96h-1v6.96h-1.29v-6.96h-1v6.96h-1.28v-6.96h-1v6.96h-0.29h-0.09
		c-0.31,0-0.61,0.03-0.91,0.05v-7.01h-1v7.09c-8.16,0.99-14.5,7.95-14.5,16.37v0.01h-0.01v0.21c-0.11,3.41-2.91,6.14-6.35,6.14
		c-3.51,0-6.36-2.85-6.36-6.36h-1c0,1.27-0.15,2.51-0.45,3.69c-0.11,0.47-0.24,0.92-0.4,1.37c-0.17,0.49-0.36,0.97-0.58,1.44
		c-0.15,0.33-0.32,0.66-0.49,0.98c-0.22,0.39-0.46,0.78-0.71,1.15c-0.19,0.29-0.39,0.56-0.6,0.83c-0.26,0.35-0.54,0.68-0.84,1
		c-0.22,0.25-0.46,0.49-0.7,0.72c-2.79,2.67-6.56,4.32-10.73,4.32c-8.55,0-15.5-6.95-15.5-15.5s6.95-15.5,15.5-15.5v-1
		c-9.1,0-16.5,7.4-16.5,16.5c0,9.1,7.4,16.5,16.5,16.5c4.44,0,8.47-1.76,11.43-4.62c2.96,2.86,6.99,4.62,11.43,4.62
		c2.25,0,4.39-0.45,6.35-1.27h0.01v1.25h1v-1.72c0.44-0.21,0.86-0.45,1.28-0.71c0,0,0.01,0,0.01-0.01v2.44h1v-3.11
		c0.45-0.32,0.86-0.65,1.27-1.01l0.01-0.01v4.13h1v-4.13v-0.97l0.2-0.2c0.29-0.32,0.57-0.65,0.84-1c0.08-0.1,0.16-0.2,0.24-0.3
		c0,0,0-0.01,0.01-0.01v0.55v1.71v1.26v3.09h1v-2.42v-1.19v-1.6v-1.28v-1.63c0.02-0.02,0.03-0.06,0.05-0.09
		c0.18-0.3,0.34-0.6,0.5-0.92c0.21-0.42,0.41-0.86,0.58-1.31c0.05-0.11,0.09-0.23,0.14-0.34c0-0.01,0.01-0.02,0.01-0.03v0.55v1.86
		v1.3v1.59v1.18v1.5v1.11v1.72h1V58.3c0-2.81,1.83-5.2,4.36-6.04v6.4c0,9.1,7.4,16.5,16.5,16.5v-1c-8.55,0-15.5-6.95-15.5-15.5
		v-6.63c0.3-0.05,0.6-0.08,0.91-0.09h0.09h0.29v6.72c0,7.84,6.37,14.21,14.21,14.21v-1c-7.29,0-13.21-5.92-13.21-13.21v-6.72h1.28
		v6.72c0,6.58,5.35,11.93,11.93,11.93v-1c-6.03,0-10.93-4.9-10.93-10.93v-6.72h1.29v6.72c0,5.32,4.32,9.64,9.64,9.64v-1
		c-4.77,0-8.64-3.87-8.64-8.64v-6.72H86v6.72C86,62.72,89.3,66.02,93.36,66.02z"/>
	
		<linearGradient id="SVGID_00000074407886420538535480000013149833925128022673_" gradientUnits="userSpaceOnUse" x1="25.78" y1="58.3" x2="40.5" y2="58.3">
		<stop  offset="0" style="stop-color:#F3903F"/>
		<stop  offset="0.2514" style="stop-color:#FFF33B"/>
		<stop  offset="0.2521" style="stop-color:#FFF13B"/>
		<stop  offset="0.2881" style="stop-color:#FECC40"/>
		<stop  offset="0.3247" style="stop-color:#F8AD41"/>
		<stop  offset="0.3619" style="stop-color:#F39440"/>
		<stop  offset="0.3996" style="stop-color:#F0823E"/>
		<stop  offset="0.4378" style="stop-color:#EF743D"/>
		<stop  offset="0.4771" style="stop-color:#ED6B3D"/>
		<stop  offset="0.5189" style="stop-color:#ED683C"/>
		<stop  offset="0.7725" style="stop-color:#FDC70C"/>
		<stop  offset="1" style="stop-color:#E93E3A"/>
	</linearGradient>
	<path style="fill:url(#SVGID_00000074407886420538535480000013149833925128022673_);" d="M26.78,58.3c0-3.51,2.85-6.36,6.36-6.36
		v-1c-4.06,0-7.36,3.3-7.36,7.36s3.3,7.36,7.36,7.36c2.95,0,5.49-1.74,6.66-4.25c0.45-0.94,0.7-2,0.7-3.11h-1
		c0,3.51-2.85,6.36-6.36,6.36S26.78,61.81,26.78,58.3z"/>
</g>
</svg>
